<svg width="24" height="24" viewBox="0 0 24 24" fill="none" xmlns="http://www.w3.org/2000/svg">
<path d="M12 24C5.4 24 0 18.6 0 12C0 5.4 5.4 0 12 0C18.6 0 24 5.4 24 12C24 18.6 18.6 24 12 24ZM12 2C6.5 2 2 6.5 2 12C2 17.5 6.5 22 12 22C17.5 22 22 17.5 22 12C22 6.5 17.5 2 12 2Z" fill="white"/>
<path d="M12 16C11.4 16 11 15.6 11 15V14.3C11 12.8 11.8 11.5 13 10.8C13.8 10.4 14.2 9.5 14 8.7C13.9 7.9 13.2 7.2 12.4 7.1C11.8 7 11.2 7.1 10.7 7.5C10.3 7.8 10 8.4 10 9C10 9.6 9.6 10 9 10C8.4 10 8 9.6 8 9C8 7.8 8.5 6.7 9.4 5.9C10.3 5.1 11.5 4.8 12.7 5C14.3 5.3 15.6 6.6 15.9 8.2C16.2 9.9 15.4 11.6 13.9 12.4C13.3 12.7 13 13.4 13 14.2V15C13 15.6 12.6 16 12 16Z" fill="white"/>
<path d="M12 19C12.5523 19 13 18.5523 13 18C13 17.4477 12.5523 17 12 17C11.4477 17 11 17.4477 11 18C11 18.5523 11.4477 19 12 19Z" fill="white"/>
<path d="M12 19.5C11.2 19.5 10.5 18.8 10.5 18C10.5 17.2 11.2 16.5 12 16.5C12.8 16.5 13.5 17.2 13.5 18C13.5 18.8 12.8 19.5 12 19.5ZM12 17.5C11.7 17.5 11.5 17.7 11.5 18C11.5 18.3 11.7 18.5 12 18.5C12.3 18.5 12.5 18.3 12.5 18C12.5 17.7 12.3 17.5 12 17.5Z" fill="white"/>
</svg>
